<svg width="40" height="40" viewBox="0 0 40 40" fill="none" xmlns="http://www.w3.org/2000/svg">
<path d="M19.9998 0.800781C9.39581 0.800781 0.799805 9.39678 0.799805 20.0008C0.799805 30.6048 9.39581 39.2008 19.9998 39.2008C30.6038 39.2008 39.1998 30.6048 39.1998 20.0008C39.1998 9.39678 30.6038 0.800781 19.9998 0.800781ZM27.3838 22.4628C27.3838 22.4628 29.0818 24.1388 29.4998 24.9168C29.5118 24.9328 29.5178 24.9488 29.5218 24.9568C29.6918 25.2428 29.7318 25.4648 29.6478 25.6308C29.5078 25.9068 29.0278 26.0428 28.8638 26.0548H25.8638C25.6558 26.0548 25.2198 26.0008 24.6918 25.6368C24.2858 25.3528 23.8858 24.8868 23.4958 24.4328C22.9138 23.7568 22.4098 23.1728 21.9018 23.1728C21.8373 23.1727 21.7732 23.1828 21.7118 23.2028C21.3278 23.3268 20.8358 23.8748 20.8358 25.3348C20.8358 25.7908 20.4758 26.0528 20.2218 26.0528H18.8478C18.3798 26.0528 15.9418 25.8888 13.7818 23.6108C11.1378 20.8208 8.75781 15.2248 8.73781 15.1728C8.58781 14.8108 8.89781 14.6168 9.23581 14.6168H12.2658C12.6698 14.6168 12.8018 14.8628 12.8938 15.0808C13.0018 15.3348 13.3978 16.3448 14.0478 17.4808C15.1018 19.3328 15.7478 20.0848 16.2658 20.0848C16.3629 20.0836 16.4583 20.0589 16.5438 20.0128C17.2198 19.6368 17.0938 17.2268 17.0638 16.7268C17.0638 16.6328 17.0618 15.6488 16.7158 15.1768C16.4678 14.8348 16.0458 14.7048 15.7898 14.6568C15.8934 14.5138 16.0299 14.3979 16.1878 14.3188C16.6518 14.0868 17.4878 14.0528 18.3178 14.0528H18.7798C19.6798 14.0648 19.9118 14.1228 20.2378 14.2048C20.8978 14.3628 20.9118 14.7888 20.8538 16.2468C20.8358 16.6608 20.8178 17.1288 20.8178 17.6808C20.8178 17.8008 20.8118 17.9288 20.8118 18.0648C20.7918 18.8068 20.7678 19.6488 21.2918 19.9948C21.3602 20.0376 21.4391 20.0605 21.5198 20.0608C21.7018 20.0608 22.2498 20.0608 23.7338 17.5148C24.1915 16.6953 24.5892 15.8437 24.9238 14.9668C24.9538 14.9148 25.0418 14.7548 25.1458 14.6928C25.2226 14.6537 25.3077 14.6337 25.3938 14.6348H28.9558C29.3438 14.6348 29.6098 14.6928 29.6598 14.8428C29.7478 15.0808 29.6438 15.8068 28.0178 18.0088L27.2918 18.9668C25.8178 20.8988 25.8178 20.9968 27.3838 22.4628Z" fill="#FAE160"/>
</svg>
