<svg width="147" height="37" viewBox="0 0 147 37" fill="none" xmlns="http://www.w3.org/2000/svg">
<path d="M0.15 0.999998H8.25V29.4H25.8V36H0.15V0.999998ZM46.6898 36.6C43.0565 36.6 39.7732 35.8167 36.8398 34.25C33.9398 32.6833 31.6565 30.5333 29.9898 27.8C28.3565 25.0333 27.5398 21.9333 27.5398 18.5C27.5398 15.0667 28.3565 11.9833 29.9898 9.25C31.6565 6.48333 33.9398 4.31667 36.8398 2.75C39.7732 1.18333 43.0565 0.399999 46.6898 0.399999C50.3232 0.399999 53.5898 1.18333 56.4898 2.75C59.3898 4.31667 61.6732 6.48333 63.3398 9.25C65.0065 11.9833 65.8398 15.0667 65.8398 18.5C65.8398 21.9333 65.0065 25.0333 63.3398 27.8C61.6732 30.5333 59.3898 32.6833 56.4898 34.25C53.5898 35.8167 50.3232 36.6 46.6898 36.6ZM46.6898 29.7C48.7565 29.7 50.6232 29.2333 52.2898 28.3C53.9565 27.3333 55.2565 26 56.1898 24.3C57.1565 22.6 57.6398 20.6667 57.6398 18.5C57.6398 16.3333 57.1565 14.4 56.1898 12.7C55.2565 11 53.9565 9.68333 52.2898 8.75C50.6232 7.78333 48.7565 7.3 46.6898 7.3C44.6232 7.3 42.7565 7.78333 41.0898 8.75C39.4232 9.68333 38.1065 11 37.1398 12.7C36.2065 14.4 35.7398 16.3333 35.7398 18.5C35.7398 20.6667 36.2065 22.6 37.1398 24.3C38.1065 26 39.4232 27.3333 41.0898 28.3C42.7565 29.2333 44.6232 29.7 46.6898 29.7ZM95.5773 17.95H102.977V32.15C101.077 33.5833 98.8773 34.6833 96.3773 35.45C93.8773 36.2167 91.3607 36.6 88.8273 36.6C85.194 36.6 81.9273 35.8333 79.0273 34.3C76.1273 32.7333 73.844 30.5833 72.1773 27.85C70.544 25.0833 69.7273 21.9667 69.7273 18.5C69.7273 15.0333 70.544 11.9333 72.1773 9.2C73.844 6.43333 76.144 4.28333 79.0773 2.75C82.0107 1.18333 85.3107 0.399999 88.9773 0.399999C92.044 0.399999 94.8273 0.916665 97.3273 1.95C99.8273 2.98333 101.927 4.48333 103.627 6.45L98.4273 11.25C95.9273 8.61667 92.9107 7.3 89.3773 7.3C87.144 7.3 85.1607 7.76667 83.4273 8.7C81.694 9.63333 80.344 10.95 79.3773 12.65C78.4107 14.35 77.9273 16.3 77.9273 18.5C77.9273 20.6667 78.4107 22.6 79.3773 24.3C80.344 26 81.6773 27.3333 83.3773 28.3C85.1107 29.2333 87.0773 29.7 89.2773 29.7C91.6107 29.7 93.7107 29.2 95.5773 28.2V17.95ZM127.452 36.6C123.818 36.6 120.535 35.8167 117.602 34.25C114.702 32.6833 112.418 30.5333 110.752 27.8C109.118 25.0333 108.302 21.9333 108.302 18.5C108.302 15.0667 109.118 11.9833 110.752 9.25C112.418 6.48333 114.702 4.31667 117.602 2.75C120.535 1.18333 123.818 0.399999 127.452 0.399999C131.085 0.399999 134.352 1.18333 137.252 2.75C140.152 4.31667 142.435 6.48333 144.102 9.25C145.768 11.9833 146.602 15.0667 146.602 18.5C146.602 21.9333 145.768 25.0333 144.102 27.8C142.435 30.5333 140.152 32.6833 137.252 34.25C134.352 35.8167 131.085 36.6 127.452 36.6ZM127.452 29.7C129.518 29.7 131.385 29.2333 133.052 28.3C134.718 27.3333 136.018 26 136.952 24.3C137.918 22.6 138.402 20.6667 138.402 18.5C138.402 16.3333 137.918 14.4 136.952 12.7C136.018 11 134.718 9.68333 133.052 8.75C131.385 7.78333 129.518 7.3 127.452 7.3C125.385 7.3 123.518 7.78333 121.852 8.75C120.185 9.68333 118.868 11 117.902 12.7C116.968 14.4 116.502 16.3333 116.502 18.5C116.502 20.6667 116.968 22.6 117.902 24.3C118.868 26 120.185 27.3333 121.852 28.3C123.518 29.2333 125.385 29.7 127.452 29.7Z" fill="#FFFFFE"/>
</svg>
