<svg width="100" height="58" viewBox="0 0 100 58" fill="none" xmlns="http://www.w3.org/2000/svg">
<path d="M99.4699 51.9996C99.3488 51.7387 99.2359 51.5222 99.131 51.3488C97.396 48.224 94.0805 44.3885 89.1864 39.8413L89.083 39.7372L89.0312 39.6861L88.9789 39.6338H88.9264C86.7052 37.5164 85.2986 36.0927 84.7096 35.3638C83.6319 33.9753 83.3904 32.5698 83.9794 31.1457C84.3956 30.0698 85.9588 27.7976 88.6654 24.3259C90.0891 22.4861 91.2167 21.0115 92.0493 19.9005C98.0547 11.9167 100.658 6.81492 99.8596 4.59319L99.5494 4.07401C99.3409 3.76144 98.803 3.47549 97.9362 3.21471C97.0674 2.95448 95.957 2.91145 94.603 3.08487L79.6084 3.18846C79.3655 3.10238 79.0186 3.1104 78.5667 3.21471C78.1154 3.31903 77.8896 3.37137 77.8896 3.37137L77.6287 3.50175L77.4215 3.6584C77.2479 3.76198 77.057 3.94417 76.8485 4.20458C76.6412 4.46408 76.4677 4.76863 76.3291 5.11566C74.6966 9.31566 72.8405 13.2206 70.7574 16.8303C69.473 18.9827 68.2935 20.8481 67.2163 22.4275C66.1405 24.0064 65.238 25.1697 64.5097 25.9154C63.7802 26.6618 63.1219 27.2598 62.5307 27.7115C61.9404 28.1634 61.4897 28.3543 61.1777 28.2845C60.865 28.2146 60.5705 28.1453 60.2916 28.076C59.806 27.7635 59.4154 27.3384 59.1209 26.8004C58.8251 26.2624 58.6259 25.5853 58.5218 24.7696C58.4182 23.9534 58.3569 23.2513 58.3394 22.661C58.3232 22.0714 58.3307 21.2374 58.3659 20.1615C58.402 19.085 58.4182 18.3566 58.4182 17.9748C58.4182 16.6556 58.4439 15.2238 58.4955 13.6792C58.5481 12.1346 58.5905 10.9108 58.6261 10.0092C58.6615 9.10667 58.6779 8.15182 58.6779 7.14518C58.6779 6.13854 58.6166 5.34909 58.4955 4.7761C58.3759 4.20385 58.1923 3.64837 57.9503 3.10986C57.7068 2.57189 57.3505 2.15574 56.8829 1.86031C56.4144 1.56525 55.832 1.33109 55.1388 1.15712C53.2989 0.740784 50.9561 0.515566 48.1093 0.480553C41.6534 0.411255 37.5052 0.828135 35.6656 1.73065C34.9367 2.11197 34.2771 2.63298 33.6873 3.29204C33.0623 4.05595 32.9752 4.47284 33.4263 4.5414C35.5093 4.85343 36.9839 5.59984 37.8517 6.7799L38.1645 7.40523C38.4078 7.85639 38.6507 8.65514 38.8937 9.80038C39.1365 10.9456 39.2931 12.2125 39.3621 13.6003C39.5353 16.1346 39.5353 18.3039 39.3621 20.1086C39.1883 21.914 39.0241 23.3195 38.8675 24.3261C38.7108 25.3327 38.4767 26.1485 38.1645 26.773C37.8517 27.3978 37.6437 27.7797 37.5393 27.9183C37.4352 28.0569 37.3484 28.1442 37.2795 28.1785C36.8283 28.3514 36.3591 28.4395 35.8735 28.4395C35.3871 28.4395 34.7973 28.1962 34.1033 27.71C33.4094 27.2238 32.6892 26.556 31.9428 25.7055C31.1964 24.8548 30.3546 23.666 29.4171 22.1388C28.4803 20.6117 27.5083 18.8069 26.5017 16.7243L25.6688 15.214C25.1482 14.2424 24.437 12.8276 23.5344 10.971C22.6314 9.1136 21.8332 7.31696 21.1393 5.58142C20.8619 4.85251 20.4452 4.29759 19.8899 3.91572L19.6293 3.75907C19.4561 3.62047 19.178 3.4733 18.7965 3.31647C18.4144 3.15982 18.0158 3.04749 17.5989 2.97837L3.33286 3.08196C1.87505 3.08196 0.885918 3.41221 0.36509 4.07182L0.156649 4.38384C0.0525204 4.55763 0 4.83519 0 5.21724C0 5.59911 0.104129 6.06778 0.312569 6.62271C2.39515 11.5173 4.65991 16.2378 7.10685 20.7848C9.55379 25.3318 11.6801 28.9946 13.4846 31.7698C15.2895 34.547 17.1291 37.1681 19.0036 39.6318C20.8781 42.0964 22.1189 43.6759 22.726 44.3698C23.3338 45.0649 23.8113 45.5847 24.1583 45.9317L25.4602 47.1811C26.2932 48.0143 27.5165 49.0122 29.1306 50.1747C30.7451 51.338 32.5324 52.4833 34.4935 53.6123C36.455 54.7394 38.7369 55.6593 41.3405 56.3707C43.9437 57.0828 46.4775 57.3686 48.9421 57.2307H54.9298C56.1442 57.1258 57.0642 56.744 57.6895 56.0849L57.8967 55.824C58.036 55.6168 58.1664 55.2949 58.2867 54.8618C58.4086 54.428 58.4691 53.95 58.4691 53.4301C58.4335 51.9378 58.5471 50.5929 58.8068 49.3955C59.0663 48.1985 59.3621 47.296 59.6929 46.6881C60.0236 46.0809 60.3967 45.5684 60.8119 45.153C61.2281 44.7367 61.5246 44.4845 61.6986 44.3977C61.8714 44.3103 62.0095 44.251 62.1136 44.2155C62.9466 43.9379 63.927 44.2067 65.0562 45.0232C66.1845 45.8389 67.2427 46.8461 68.2326 48.0431C69.2219 49.2412 70.4106 50.5854 71.7987 52.0777C73.1878 53.5705 74.4023 54.6802 75.4432 55.4102L76.4842 56.035C77.1793 56.4518 78.0818 56.8337 79.1928 57.1807C80.3017 57.5276 81.2734 57.6144 82.1077 57.441L95.436 57.2331C96.7543 57.2331 97.7801 57.0148 98.5077 56.5817C99.2368 56.1478 99.6699 55.6699 99.8096 55.1499C99.9489 54.6295 99.9564 54.039 99.836 53.3788C99.7126 52.7203 99.591 52.2599 99.4699 51.9996Z" fill="#4D76A1"/>
</svg>
