<svg width="100" height="82" viewBox="0 0 100 82" fill="none" xmlns="http://www.w3.org/2000/svg">
<path d="M100 9.99375C96.2812 11.625 92.3187 12.7062 88.1875 13.2312C92.4375 10.6937 95.6813 6.70625 97.2063 1.9C93.2438 4.2625 88.8687 5.93125 84.2062 6.8625C80.4437 2.85625 75.0812 0.375 69.2312 0.375C57.8812 0.375 48.7437 9.5875 48.7437 20.8813C48.7437 22.5063 48.8812 24.0687 49.2188 25.5562C32.175 24.725 17.0938 16.5563 6.9625 4.1125C5.19375 7.18125 4.15625 10.6938 4.15625 14.475C4.15625 21.575 7.8125 27.8687 13.2625 31.5125C9.96875 31.45 6.7375 30.4937 4 28.9875C4 29.05 4 29.1312 4 29.2125C4 39.175 11.1062 47.45 20.425 49.3563C18.7562 49.8125 16.9375 50.0312 15.05 50.0312C13.7375 50.0312 12.4125 49.9562 11.1687 49.6813C13.825 57.8 21.3625 63.7687 30.325 63.9625C23.35 69.4187 14.4938 72.7063 4.90625 72.7063C3.225 72.7063 1.6125 72.6312 0 72.425C9.08125 78.2812 19.8438 81.625 31.45 81.625C69.175 81.625 89.8 50.375 89.8 23.2875C89.8 22.3812 89.7688 21.5063 89.725 20.6375C93.7937 17.75 97.2125 14.1438 100 9.99375Z" fill="#03A9F4"/>
</svg>
